<svg version="1" xmlns="http://www.w3.org/2000/svg" width="682.667" height="682.667" viewBox="0 0 512.000000 512.000000"><path d="M369.5 90c-.1.3-.2 6.5-.1 13.9.1 10.5-.2 13.5-1.3 13.9-.7.3-8.4.6-16.9.6l-15.6.1-.1 42c0 23.1.1 42.5.2 43 .2.7 6.1 1 15.6 1 8.3 0 15.9.1 16.7.3 1.3.3 1.5 5.6 1.3 41.5 0 22.7.1 41.9.3 42.9.4 1.4 3.6 1.6 33.7 1.5l33.2-.2.5-43 .5-43h33v-86l-16.5-.1-16.5-.1-.3-14.1c-.1-7.8-.6-14.2-1-14.3-3.1-.4-66.5-.3-66.7.1zM66.9 119.9c0 .9-.1 13.7-.2 28.6l-.2 27-14.5.2c-8 0-15.5.2-16.7.2-2.3.1-2.3.3-2.3 14.4v14.3l16.8-.1h16.7v86l-11.5.2c-6.3.1-13.9.2-16.7.2l-5.3.1v28.5h16.5c13.9 0 16.6.2 16.9 1.5.2.8.4 12.7.4 26.5 0 13.7.1 26 .1 27.2l.1 2.3h67v-57.5h33.5l.2 26c.1 14.3.2 27.2.2 28.7l.1 2.8h67l.2-28.8.3-28.7h33l.3-14.3c.3-14.2.2-14.2-2-14.3-1.3-.1-8.9-.1-17-.1l-14.8.1v-43c0-33.6.3-42.9 1.3-43 .6-.1 8.2-.2 16.7-.3l15.5-.1.3-14.3c.2-13 .1-14.2-1.5-14.3-1 0-8.5-.1-16.8-.2l-15-.2-.5-28.5-.5-28.5-33.2-.1c-33.2-.1-33.3-.1-33.4 2 0 1.2-.1 14.1-.1 28.7v26.6h-16.9l-16.9.1v-57.5h-33.5c-29.9 0-33.5.2-33.6 1.6zm99.7 85c.9.1 1.2 11.7 1.2 43l-.1 42.8-16.8.1H134v-42.7c0-23.5.2-43 .4-43.2.4-.3 27.9-.3 32.2 0zM369.4 348.2V377H437v-28.5c0-15.7-.3-28.6-.7-28.6-.5-.1-15.7-.2-33.9-.3l-33-.1v28.7z"/></svg>